<svg width="39" height="54" viewBox="0 0 39 54" fill="none" xmlns="http://www.w3.org/2000/svg">
<path d="M19.2173 53.9318L3.63329 49.6055L0.160461 10.6537H38.3209L34.8444 49.5994L19.2173 53.9318Z" fill="#264DE4"/>
<path d="M31.8681 47.1195L34.839 13.8386H19.2407V50.6203L31.8681 47.1195Z" fill="#2965F1"/>
<path d="M8.12186 28.2853L8.55003 33.0625H19.2407V28.2853H8.12186Z" fill="#EBEBEB"/>
<path d="M7.26151 18.6159L7.69578 23.3932H19.2407V18.6159H7.26151Z" fill="#EBEBEB"/>
<path d="M19.2407 40.6924L19.2198 40.698L13.8993 39.2613L13.5591 35.4512H8.76349L9.43279 42.9522L19.2187 45.6689L19.2407 45.6628V40.6924Z" fill="#EBEBEB"/>
<path d="M9.14127 0.0682144H14.9274V2.48787H11.5609V4.90752H14.9274V7.32717H9.14127V0.0682144Z" fill="white"/>
<path d="M16.0846 0.0682144H21.8707V2.17226H18.5043V2.59307H21.8707V7.43237H16.0846V5.22313H19.4511V4.80232H16.0846V0.0682144Z" fill="white"/>
<path d="M23.028 0.0682144H28.8141V2.17226H25.4476V2.59307H28.8141V7.43237H23.028V5.22313H26.3944V4.80232H23.028V0.0682144Z" fill="white"/>
<path d="M30.3289 28.2853L31.1913 18.6159H19.2242V23.3932H25.9559L25.5212 28.2853H19.2242V33.0625H25.1069L24.5523 39.2583L19.2242 40.6964V45.6666L29.0179 42.9522L29.0897 42.1451L30.2123 29.5681L30.3289 28.2853Z" fill="white"/>
</svg>
