<svg width="19" height="18" viewBox="0 0 19 18" fill="none" xmlns="http://www.w3.org/2000/svg">
<g id="Icons1">
<path id="github" fill-rule="evenodd" clip-rule="evenodd" d="M9.01087 0.129395C4.03462 0.129395 0 4.16402 0 9.14177C0 13.1231 2.58187 16.5008 6.16312 17.6929C6.61387 17.7754 6.77813 17.4971 6.77813 17.2579C6.77813 17.0445 6.77062 16.4775 6.76612 15.7256C4.25925 16.2701 3.7305 14.5174 3.7305 14.5174C3.32062 13.4768 2.72963 13.1996 2.72963 13.1996C1.91138 12.6401 2.7915 12.6514 2.7915 12.6514C3.696 12.7155 4.17188 13.5803 4.17188 13.5803C4.97588 14.9573 6.28125 14.5594 6.79462 14.3291C6.87675 13.7468 7.10888 13.3496 7.36688 13.1243C5.36588 12.897 3.26175 12.1234 3.26175 8.6704C3.26175 7.68677 3.61313 6.88202 4.1895 6.25202C4.09688 6.02402 3.7875 5.10789 4.27762 3.86702C4.27762 3.86702 5.03438 3.62477 6.756 4.79102C7.47488 4.59114 8.24588 4.49102 9.012 4.48764C9.77738 4.49102 10.5484 4.59114 11.2684 4.79102C12.9889 3.62477 13.7441 3.86702 13.7441 3.86702C14.2358 5.10789 13.9264 6.02402 13.8337 6.25202C14.4112 6.88202 14.7604 7.68677 14.7604 8.6704C14.7604 12.1324 12.6529 12.894 10.6451 13.1171C10.9691 13.3954 11.2571 13.9451 11.2571 14.7863C11.2571 15.9908 11.2463 16.9628 11.2463 17.2579C11.2463 17.4994 11.4082 17.7799 11.8657 17.6918C15.444 16.4974 18.0236 13.122 18.0236 9.14177C18.0236 4.16402 13.9886 0.129395 9.01087 0.129395Z" fill="#010101"/>
</g>
</svg>
