<svg width="24" height="24" viewBox="0 0 24 24" fill="none" xmlns="http://www.w3.org/2000/svg">
<g clip-path="url(#clip0_14_94)">
<path fill-rule="evenodd" clip-rule="evenodd" d="M12.0109 3.12939C7.03462 3.12939 3 7.16402 3 12.1418C3 16.1231 5.58187 19.5008 9.16312 20.6929C9.61387 20.7754 9.77813 20.4971 9.77813 20.2579C9.77813 20.0445 9.77062 19.4775 9.76612 18.7256C7.25925 19.2701 6.7305 17.5174 6.7305 17.5174C6.32062 16.4768 5.72963 16.1996 5.72963 16.1996C4.91138 15.6401 5.7915 15.6514 5.7915 15.6514C6.696 15.7155 7.17188 16.5803 7.17188 16.5803C7.97588 17.9573 9.28125 17.5594 9.79462 17.3291C9.87675 16.7468 10.1089 16.3496 10.3669 16.1243C8.36588 15.897 6.26175 15.1234 6.26175 11.6704C6.26175 10.6868 6.61313 9.88202 7.1895 9.25202C7.09688 9.02402 6.7875 8.10789 7.27762 6.86702C7.27762 6.86702 8.03438 6.62477 9.756 7.79102C10.4749 7.59114 11.2459 7.49102 12.012 7.48764C12.7774 7.49102 13.5484 7.59114 14.2684 7.79102C15.9889 6.62477 16.7441 6.86702 16.7441 6.86702C17.2358 8.10789 16.9264 9.02402 16.8337 9.25202C17.4112 9.88202 17.7604 10.6868 17.7604 11.6704C17.7604 15.1324 15.6529 15.894 13.6451 16.1171C13.9691 16.3954 14.2571 16.9451 14.2571 17.7863C14.2571 18.9908 14.2463 19.9628 14.2463 20.2579C14.2463 20.4994 14.4082 20.7799 14.8657 20.6918C18.444 19.4974 21.0236 16.122 21.0236 12.1418C21.0236 7.16402 16.9886 3.12939 12.0109 3.12939Z" fill="white"/>
<path d="M31.802 19.46V26.516C31.802 27.794 31.802 28.532 31.784 29.126C31.712 31.43 30.236 32.924 27.734 32.924C25.754 32.924 24.224 32.114 23.954 29.99L23.918 29.756H24.62L24.638 29.99C24.854 31.646 26.186 32.33 27.77 32.33C29.912 32.33 31.046 31.016 31.1 29.072C31.118 28.478 31.118 28.046 31.118 27.308V26.984L30.56 28.064C29.786 28.928 28.904 29.252 27.698 29.252C25.142 29.252 23.54 27.2 23.54 24.338C23.54 20.954 25.61 19.262 27.932 19.262C29.03 19.262 29.876 19.586 30.578 20.342L31.118 21.44V19.46H31.802ZM27.77 28.676C29.57 28.676 31.118 27.632 31.118 24.608V23.69C31.118 20.756 29.39 19.838 27.932 19.838C25.808 19.838 24.296 21.584 24.296 24.248C24.296 26.642 25.502 28.676 27.77 28.676ZM34.7454 17.012C35.0334 17.012 35.2674 17.246 35.2674 17.534C35.2674 17.822 35.0334 18.056 34.7454 18.056C34.4574 18.056 34.2234 17.822 34.2234 17.534C34.2234 17.246 34.4574 17.012 34.7454 17.012ZM35.0874 29H34.4034V19.514H35.0874V29ZM38.7345 27.524C38.8065 28.46 39.2205 28.73 40.5705 28.532V29.072C40.2825 29.108 39.9045 29.126 39.5625 29.126C38.6265 29.126 38.1405 28.712 38.0685 27.794C38.0325 27.398 38.0325 27.074 38.0325 26.534V20.126H36.8625V19.586H38.0325V17.57H38.7165V19.586H40.5525V20.126H38.7165V26.57C38.7165 27.038 38.7165 27.272 38.7345 27.524ZM49.5324 22.142C49.5864 22.628 49.6044 22.934 49.6044 23.708V29H48.9204V23.87C48.9204 23.24 48.9024 22.826 48.8484 22.34C48.6864 20.864 47.8764 19.838 46.1664 19.856C44.4924 19.856 42.9624 21.026 42.9624 23.744V29H42.2784V15.68H42.9624V21.548L43.3944 20.558C44.1144 19.658 45.1224 19.262 46.2384 19.262C48.2004 19.262 49.3524 20.342 49.5324 22.142ZM59.2686 19.514V29H58.5846V26.966L58.1526 27.956C57.4146 28.838 56.4246 29.252 55.3086 29.252C53.3826 29.252 52.2306 28.172 52.0146 26.462C51.9606 25.976 51.9426 25.652 51.9426 24.878V19.514H52.6266V24.698C52.6266 25.274 52.6446 25.706 52.6986 26.192C52.8786 27.668 53.7246 28.658 55.3986 28.658C57.0726 28.658 58.5846 27.47 58.5846 24.77V19.514H59.2686ZM65.982 19.262C68.538 19.262 70.14 21.314 70.14 24.158C70.14 27.56 68.07 29.252 65.748 29.252C64.65 29.252 63.804 28.928 63.102 28.172L62.562 27.056V29H61.878V15.77H62.562V21.512L63.12 20.45C63.894 19.586 64.776 19.262 65.982 19.262ZM65.748 28.676C67.872 28.676 69.384 26.93 69.384 24.266C69.384 21.854 68.178 19.838 65.91 19.838C64.11 19.838 62.562 20.882 62.562 23.888V24.824C62.562 27.758 64.29 28.676 65.748 28.676Z" fill="white"/>
</g>
<rect x="0.5" y="0.5" width="23" height="23" rx="11.5" stroke="white"/>
<defs>
<clipPath id="clip0_14_94">
<rect width="24" height="24" rx="12" fill="white"/>
</clipPath>
</defs>
</svg>
