<svg width="55" height="54" viewBox="0 0 55 54" fill="none" xmlns="http://www.w3.org/2000/svg">
<g clip-path="url(#clip0_3_27)">
<path d="M46.1604 10.6537L42.6839 49.5995L27.0569 53.9318L11.4728 49.6056L8 10.6537H46.1604Z" fill="#E44D26"/>
<path d="M27.0802 50.6204L39.7077 47.1195L42.6786 13.8386H27.0802V50.6204Z" fill="#F16529"/>
<path d="M20.322 23.3933H27.0802V18.6159H15.101L15.2154 19.8976L16.3896 33.0625H27.0802V28.2853H20.7586L20.322 23.3933Z" fill="#EBEBEB"/>
<path d="M21.3987 35.4512H16.603L17.2723 42.9523L27.0582 45.6689L27.0802 45.6628V40.6924L27.0593 40.698L21.7388 39.2613L21.3987 35.4512Z" fill="#EBEBEB"/>
<path d="M11.5505 0.0682144H13.9782V2.46683H16.199V0.0682144H18.6269V7.3318H16.1992V4.89952H13.9783V7.3318H11.5506L11.5505 0.0682144Z" fill="white"/>
<path d="M21.8195 2.47693H19.6822V0.0682144H26.3857V2.47693H24.2474V7.3318H21.8196L21.8195 2.47693Z" fill="white"/>
<path d="M27.4496 0.0682144H29.9811L31.5383 2.62042L33.0939 0.0682144H35.6263V7.3318H33.2086V3.73157L31.5383 6.31418H31.4965L29.8251 3.73157V7.3318H27.4496V0.0682144Z" fill="white"/>
<path d="M36.8346 0.0682144H39.2631V4.93087H42.6772V7.3318H36.8346V0.0682144Z" fill="white"/>
<path d="M27.0637 33.0625H32.9464L32.3919 39.2583L27.0637 40.6964V45.6666L36.8574 42.9523L36.9293 42.1452L38.0519 29.5681L38.1685 28.2853H27.0637V33.0625Z" fill="white"/>
<path d="M27.0637 23.3816V23.3933H38.6031L38.699 22.3195L38.9167 19.8976L39.0309 18.6159H27.0637V23.3816Z" fill="white"/>
</g>
<defs>
<clipPath id="clip0_3_27">
<rect width="54.1604" height="53.8636" fill="white" transform="translate(0 0.0682144)"/>
</clipPath>
</defs>
</svg>
