<svg width="54" height="54" viewBox="0 0 54 54" fill="none" xmlns="http://www.w3.org/2000/svg">
<g clip-path="url(#clip0_3_8)">
<path d="M0 0H54V54H0V0Z" fill="#222222"/>
<path d="M26.9582 31.4828C29.4521 31.4828 31.4739 29.4611 31.4739 26.9672C31.4739 24.4732 29.4521 22.4515 26.9582 22.4515C24.4643 22.4515 22.4425 24.4732 22.4425 26.9672C22.4425 29.4611 24.4643 31.4828 26.9582 31.4828Z" fill="#00D8FF"/>
<path d="M26.9582 17.7866C33.0199 17.7866 38.6518 18.6566 42.8974 20.1176C48.0129 21.8785 51.1587 24.5482 51.1587 26.9657C51.1587 29.4847 47.8249 32.3215 42.3318 34.1406C38.1787 35.5165 32.7125 36.2358 26.9582 36.2358C21.0577 36.2358 15.4721 35.5613 11.2713 34.1257C5.95722 32.3096 2.75626 29.4369 2.75626 26.9657C2.75626 24.5676 5.76024 21.9188 10.8042 20.1608C15.0662 18.676 20.8368 17.7866 26.9582 17.7866Z" stroke="#00D8FF" stroke-miterlimit="10"/>
<path d="M18.967 22.4037C21.9949 17.1524 25.5629 12.7083 28.9504 9.76107C33.0318 6.20942 36.9163 4.8186 39.01 6.02587C41.1917 7.28387 41.9841 11.5891 40.8156 17.2583C39.9322 21.5442 37.8251 26.6374 34.9494 31.6231C32.0022 36.7342 28.6266 41.2364 25.2854 44.1584C21.0577 47.8548 16.9688 49.1918 14.8289 47.9577C12.7516 46.7594 11.9577 42.8347 12.9531 37.5863C13.7947 33.1482 15.9078 27.7059 18.967 22.4037Z" stroke="#00D8FF" stroke-miterlimit="10"/>
<path d="M18.9745 31.6336C15.9377 26.3867 13.8693 21.0771 13.0068 16.6704C11.9682 11.3608 12.7024 7.30028 14.7946 6.09004C16.9748 4.82756 21.0995 6.29149 25.4271 10.1341C28.6997 13.0396 32.0589 17.4091 34.942 22.3903C37.8982 27.4969 40.1142 32.6692 40.9753 37.0222C42.0662 42.5318 41.1827 46.7415 39.0443 47.9786C36.9685 49.1799 33.1721 47.9085 29.122 44.424C25.7017 41.4797 22.0411 36.9312 18.9745 31.6336Z" stroke="#00D8FF" stroke-miterlimit="10"/>
</g>
<defs>
<clipPath id="clip0_3_8">
<rect width="54" height="54" fill="white"/>
</clipPath>
</defs>
</svg>
