<svg width="54" height="54" viewBox="0 0 54 54" fill="none" xmlns="http://www.w3.org/2000/svg">
<path fill-rule="evenodd" clip-rule="evenodd" d="M27 13.581C20.9992 13.581 17.2507 16.5623 15.75 22.527C18 19.5458 20.6257 18.4275 23.625 19.1723C25.3372 19.5975 26.5612 20.8328 27.9135 22.1985C30.1207 24.4238 32.6745 27 38.25 27C44.2507 27 47.9992 24.0188 49.5 18.054C47.25 21.0353 44.6265 22.1535 41.625 21.4088C39.9127 20.9835 38.6887 19.7483 37.3342 18.3825C35.1292 16.155 32.5777 13.581 27 13.581ZM15.75 27C9.74925 27 6.00075 29.9813 4.5 35.946C6.75 32.9625 9.37575 31.8465 12.375 32.5912C14.0872 33.0165 15.3112 34.2518 16.6657 35.6175C18.8707 37.8428 21.4245 40.419 27.0022 40.419C33.003 40.419 36.7515 37.4378 38.2522 31.473C36.0022 34.4543 33.3765 35.5725 30.3772 34.8278C28.665 34.4025 27.441 33.1673 26.0887 31.8015C23.8792 29.5763 21.3255 27 15.75 27Z" fill="white"/>
</svg>
